<svg width="20" height="15" viewBox="0 0 20 15" fill="none" xmlns="http://www.w3.org/2000/svg">
<path d="M1.75012 0.5H18.8899C19.1954 0.5 19.4731 0.625101 19.6741 0.825988C19.8753 1.02719 20.0003 1.30528 20.0003 1.61047V13.3894C20.0003 13.6196 19.9292 13.834 19.8079 14.0119C19.7857 14.0694 19.751 14.123 19.7036 14.1685C19.6719 14.1983 19.6371 14.2227 19.6002 14.2411C19.4072 14.402 19.1592 14.5 18.8899 14.5H1.75012C1.44493 14.5 1.167 14.3751 0.965637 14.1739C0.76475 13.9728 0.639648 13.6952 0.639648 13.3894V1.61047C0.639648 1.30465 0.764435 1.02687 0.965479 0.825988C1.16652 0.624786 1.4443 0.5 1.75012 0.5ZM1.49141 12.9222L7.49816 6.90033L1.49141 2.00279V12.9222ZM8.15975 7.43965L1.96692 13.6481H18.621L12.7028 7.4406L10.7517 9.103C10.5988 9.23377 10.3697 9.24118 10.2077 9.10977L8.15975 7.43965ZM13.3505 6.88883L19.1485 12.9703V1.94922L13.3505 6.88883ZM2.03672 1.35176L10.4694 8.22745L18.54 1.35176H2.03672Z" fill="white"/>
</svg>
