<svg width="23" height="17" viewBox="0 0 23 17" fill="none" xmlns="http://www.w3.org/2000/svg">
<path d="M10.5557 8.11974V1.06496C10.5557 0.753508 10.811 0.5 11.1261 0.5C11.4412 0.5 11.6965 0.753508 11.6965 1.06496V8.11974L14.3239 5.82368C14.5593 5.61725 14.9178 5.63898 15.1261 5.87257C15.3343 6.10616 15.3126 6.46107 15.0772 6.6675L11.5027 9.78927C11.2836 9.98121 10.9577 9.97578 10.7458 9.78565L7.17497 6.6675C6.93957 6.46107 6.91784 6.10616 7.12608 5.87257C7.33432 5.64079 7.69285 5.61906 7.92825 5.82368L10.5557 8.11974ZM0.0169782 9.0885C-0.0608851 8.76799 0.136489 8.44568 0.456996 8.36781C0.777503 8.28995 1.09982 8.48732 1.17768 8.80783C1.36419 9.57922 1.49638 10.2438 1.6177 10.854C2.19172 13.7494 2.49955 15.3031 6.53395 15.3031H16.0496C19.8196 15.3031 20.1256 13.6607 20.6345 10.9409C20.7558 10.289 20.888 9.58284 21.0763 8.80783C21.1541 8.48732 21.4765 8.28995 21.797 8.36781C22.1175 8.44568 22.313 8.76799 22.237 9.0885C22.0595 9.81643 21.9292 10.5154 21.8096 11.1618C21.1867 14.49 20.8119 16.5 16.0514 16.5H6.53214C1.5163 16.5 1.14147 14.6096 0.44251 11.084C0.310324 10.4176 0.178137 9.74943 0.0169782 9.0885Z" fill="white"/>
</svg>
