<svg width="23" height="17" viewBox="0 0 23 17" fill="none" xmlns="http://www.w3.org/2000/svg">
<path d="M11.3028 8.11974V1.06496C11.3028 0.753508 11.5581 0.5 11.8731 0.5C12.1882 0.5 12.4435 0.753508 12.4435 1.06496V8.11974L15.071 5.82368C15.3064 5.61725 15.6649 5.63898 15.8731 5.87257C16.0814 6.10616 16.0597 6.46107 15.8243 6.6675L12.2498 9.78927C12.0307 9.98121 11.7047 9.97578 11.4929 9.78565L7.92204 6.6675C7.68664 6.46107 7.66491 6.10616 7.87315 5.87257C8.08139 5.64079 8.43992 5.61906 8.67532 5.82368L11.3028 8.11974ZM0.764049 9.0885C0.686185 8.76799 0.88356 8.44568 1.20407 8.36781C1.52457 8.28995 1.84689 8.48732 1.92475 8.80783C2.11126 9.57922 2.24345 10.2438 2.36477 10.854C2.93879 13.7494 3.24662 15.3031 7.28102 15.3031H16.7966C20.5667 15.3031 20.8727 13.6607 21.3815 10.9409C21.5028 10.289 21.635 9.58284 21.8234 8.80783C21.9012 8.48732 22.2235 8.28995 22.544 8.36781C22.8645 8.44568 23.0601 8.76799 22.9841 9.0885C22.8066 9.81643 22.6762 10.5154 22.5567 11.1618C21.9338 14.49 21.559 16.5 16.7985 16.5H7.27921C2.26337 16.5 1.88854 14.6096 1.18958 11.084C1.05739 10.4176 0.925207 9.74943 0.764049 9.0885Z" fill="white"/>
</svg>
