<svg width="14" height="15" viewBox="0 0 14 15" fill="none" xmlns="http://www.w3.org/2000/svg">
<path fill-rule="evenodd" clip-rule="evenodd" d="M0.629776 2.86007C1.703 3.59792 2.76768 4.33998 3.66638 5.29544C3.15123 7.57267 5.20728 9.39211 7.08243 10.464C7.81651 10.8836 8.14096 11.1778 8.95815 11.0364L12.1763 14.192C6.11998 16.2276 -0.676829 7.68752 0.629776 2.86007ZM9.78774 10.2251L10.4937 9.50752C10.6973 9.30027 11.0333 9.29765 11.2404 9.50148L13.8431 12.0661C14.0501 12.2699 14.0527 12.6062 13.8492 12.8134L13.143 13.531C12.9393 13.7382 12.6033 13.7408 12.3962 13.537L9.79343 10.9724C9.58635 10.7687 9.58384 10.4323 9.78774 10.2251ZM1.26412 1.35077L1.77643 0.728223C1.99604 0.461386 2.39404 0.422876 2.66067 0.642657L5.32522 2.83945C5.59185 3.05946 5.62999 3.45755 5.41061 3.72473L4.89807 4.34693C4.67835 4.61411 4.28046 4.65227 4.01372 4.43249L1.34962 2.2357C1.083 2.01592 1.04429 1.6176 1.26412 1.35077Z" fill="white"/>
</svg>
