<svg width="31" height="31" viewBox="0 0 31 31" fill="none" xmlns="http://www.w3.org/2000/svg">
<path d="M15.6488 0.960693C9.38469 0.960693 7.55269 0.967155 7.19658 0.996696C5.91109 1.10355 5.11117 1.30595 4.23972 1.73984C3.56812 2.07333 3.03846 2.4599 2.51572 3.00179C1.56372 3.99003 0.986749 5.20582 0.777885 6.65102C0.676338 7.35262 0.646797 7.49571 0.640796 11.0794C0.638488 12.274 0.640796 13.8461 0.640796 15.9548C0.640796 22.2138 0.64772 24.044 0.677722 24.3994C0.781577 25.6502 0.977748 26.4372 1.39317 27.2981C2.18708 28.9459 3.70336 30.1829 5.48967 30.6445C6.10818 30.8038 6.79132 30.8915 7.66831 30.933C8.03988 30.9492 11.8271 30.9607 15.6167 30.9607C19.4062 30.9607 23.1958 30.9561 23.5581 30.9376C24.5736 30.8898 25.1633 30.8107 25.8152 30.6422C27.6131 30.1783 29.1017 28.9598 29.9117 27.2888C30.3191 26.4488 30.5256 25.6318 30.6191 24.4462C30.6394 24.1877 30.6479 20.0665 30.6479 15.9509C30.6479 11.8345 30.6387 7.72096 30.6184 7.46247C30.5238 6.25776 30.3172 5.44769 29.8967 4.59146C29.5517 3.89056 29.1686 3.36713 28.6124 2.83193C27.6198 1.88385 26.4058 1.30688 24.9592 1.09824C24.2583 0.996927 24.1187 0.966925 20.5322 0.960693H15.6488Z" fill="url(#paint0_radial_264_311)"/>
<path d="M15.6488 0.960693C9.38469 0.960693 7.55269 0.967155 7.19658 0.996696C5.91109 1.10355 5.11117 1.30595 4.23972 1.73984C3.56812 2.07333 3.03846 2.4599 2.51572 3.00179C1.56372 3.99003 0.986749 5.20582 0.777885 6.65102C0.676338 7.35262 0.646797 7.49571 0.640796 11.0794C0.638488 12.274 0.640796 13.8461 0.640796 15.9548C0.640796 22.2138 0.64772 24.044 0.677722 24.3994C0.781577 25.6502 0.977748 26.4372 1.39317 27.2981C2.18708 28.9459 3.70336 30.1829 5.48967 30.6445C6.10818 30.8038 6.79132 30.8915 7.66831 30.933C8.03988 30.9492 11.8271 30.9607 15.6167 30.9607C19.4062 30.9607 23.1958 30.9561 23.5581 30.9376C24.5736 30.8898 25.1633 30.8107 25.8152 30.6422C27.6131 30.1783 29.1017 28.9598 29.9117 27.2888C30.3191 26.4488 30.5256 25.6318 30.6191 24.4462C30.6394 24.1877 30.6479 20.0665 30.6479 15.9509C30.6479 11.8345 30.6387 7.72096 30.6184 7.46247C30.5238 6.25776 30.3172 5.44769 29.8967 4.59146C29.5517 3.89056 29.1686 3.36713 28.6124 2.83193C27.6198 1.88385 26.4058 1.30688 24.9592 1.09824C24.2583 0.996927 24.1187 0.966925 20.5322 0.960693H15.6488Z" fill="url(#paint1_radial_264_311)"/>
<path d="M15.642 4.88403C12.6335 4.88403 12.2559 4.89719 11.0742 4.95096C9.89492 5.00497 9.08992 5.19167 8.38556 5.46562C7.65696 5.74857 7.0389 6.12706 6.42316 6.74304C5.80695 7.35878 5.42846 7.97683 5.14459 8.7052C4.86995 9.4098 4.68301 10.215 4.62993 11.3939C4.57708 12.5755 4.56323 12.9533 4.56323 15.9619C4.56323 18.9705 4.57662 19.3469 4.63016 20.5285C4.6844 21.7078 4.8711 22.5128 5.14482 23.2172C5.428 23.9458 5.80649 24.5639 6.42247 25.1796C7.03798 25.7958 7.65603 26.1752 8.38417 26.4582C9.089 26.7321 9.89422 26.9188 11.0733 26.9728C12.255 27.0266 12.6323 27.0398 15.6406 27.0398C18.6494 27.0398 19.0258 27.0266 20.2075 26.9728C21.3868 26.9188 22.1927 26.7321 22.8976 26.4582C23.6259 26.1752 24.2431 25.7958 24.8586 25.1796C25.4748 24.5639 25.8533 23.9458 26.1371 23.2174C26.4095 22.5128 26.5964 21.7076 26.6518 20.5287C26.7049 19.3471 26.7187 18.9705 26.7187 15.9619C26.7187 12.9533 26.7049 12.5758 26.6518 11.3941C26.5964 10.2148 26.4095 9.4098 26.1371 8.70543C25.8533 7.97683 25.4748 7.35878 24.8586 6.74304C24.2424 6.12683 23.6262 5.74834 22.8969 5.46562C22.1906 5.19167 21.3852 5.00497 20.2059 4.95096C19.0242 4.89719 18.648 4.88403 15.6386 4.88403H15.642ZM14.6482 6.88036C14.9432 6.87989 15.2723 6.88036 15.642 6.88036C18.5998 6.88036 18.9504 6.89097 20.1184 6.94405C21.1985 6.99344 21.7847 7.17392 22.1752 7.32555C22.6922 7.52633 23.0607 7.76635 23.4482 8.15408C23.8359 8.5418 24.076 8.91107 24.2772 9.42803C24.4288 9.81807 24.6095 10.4043 24.6587 11.4844C24.7118 12.6522 24.7233 13.003 24.7233 15.9594C24.7233 18.9158 24.7118 19.2666 24.6587 20.4343C24.6093 21.5144 24.4288 22.1006 24.2772 22.4907C24.0764 23.0076 23.8359 23.3758 23.4482 23.7632C23.0605 24.151 22.6924 24.391 22.1752 24.5918C21.7852 24.7441 21.1985 24.9241 20.1184 24.9735C18.9506 25.0266 18.5998 25.0381 15.642 25.0381C12.684 25.0381 12.3334 25.0266 11.1656 24.9735C10.0855 24.9237 9.49934 24.7432 9.10862 24.5915C8.59165 24.3908 8.22239 24.1507 7.83466 23.763C7.44694 23.3753 7.20692 23.007 7.00567 22.4898C6.85404 22.0997 6.67333 21.5135 6.62418 20.4334C6.57109 19.2656 6.56048 18.9148 6.56048 15.9566C6.56048 12.9983 6.57109 12.6494 6.62418 11.4816C6.67356 10.4015 6.85404 9.8153 7.00567 9.4248C7.20646 8.90784 7.44694 8.53857 7.83466 8.15085C8.22239 7.76312 8.59165 7.5231 9.10862 7.32185C9.49911 7.16953 10.0855 6.98952 11.1656 6.9399C12.1876 6.89374 12.5836 6.87989 14.6482 6.87759V6.88036ZM21.5553 8.71974C20.8214 8.71974 20.2259 9.31448 20.2259 10.0486C20.2259 10.7825 20.8214 11.378 21.5553 11.378C22.2892 11.378 22.8846 10.7825 22.8846 10.0486C22.8846 9.31472 22.2892 8.71928 21.5553 8.71928V8.71974ZM15.642 10.273C12.5003 10.273 9.95307 12.8202 9.95307 15.9619C9.95307 19.1036 12.5003 21.6497 15.642 21.6497C18.7837 21.6497 21.33 19.1036 21.33 15.9619C21.33 12.8202 18.7837 10.273 15.642 10.273ZM15.642 12.2693C17.6813 12.2693 19.3346 13.9224 19.3346 15.9619C19.3346 18.0011 17.6813 19.6545 15.642 19.6545C13.6025 19.6545 11.9494 18.0011 11.9494 15.9619C11.9494 13.9224 13.6025 12.2693 15.642 12.2693Z" fill="white"/>
<defs>
<radialGradient id="paint0_radial_264_311" cx="0" cy="0" r="1" gradientUnits="userSpaceOnUse" gradientTransform="translate(8.61073 33.2713) rotate(-90) scale(29.7322 27.6608)">
<stop stop-color="#FFDD55"/>
<stop offset="0.1" stop-color="#FFDD55"/>
<stop offset="0.5" stop-color="#FF543E"/>
<stop offset="1" stop-color="#C837AB"/>
</radialGradient>
<radialGradient id="paint1_radial_264_311" cx="0" cy="0" r="1" gradientUnits="userSpaceOnUse" gradientTransform="translate(-4.38676 3.12184) rotate(78.6776) scale(13.2906 54.7981)">
<stop stop-color="#3771C8"/>
<stop offset="0.128" stop-color="#3771C8"/>
<stop offset="1" stop-color="#6600FF" stop-opacity="0"/>
</radialGradient>
</defs>
</svg>
