<svg width="31" height="31" viewBox="0 0 31 31" fill="none" xmlns="http://www.w3.org/2000/svg">
<path fill-rule="evenodd" clip-rule="evenodd" d="M6.79211 0.960693H24.4874C26.1177 0.965203 27.68 1.61484 28.8328 2.76766C29.9856 3.92047 30.6353 5.48272 30.6398 7.11304V24.8083C30.6353 26.4387 29.9856 28.0009 28.8328 29.1537C27.68 30.3065 26.1177 30.9562 24.4874 30.9607H6.79211C5.1618 30.9562 3.59954 30.3065 2.44673 29.1537C1.29392 28.0009 0.64428 26.4387 0.639771 24.8083L0.639771 7.11304C0.64428 5.48272 1.29392 3.92047 2.44673 2.76766C3.59954 1.61484 5.1618 0.965203 6.79211 0.960693Z" fill="#0077B5"/>
<path fill-rule="evenodd" clip-rule="evenodd" d="M8.06909 13.2581H11.3137V22.9895H8.06909V13.2581Z" fill="white"/>
<path fill-rule="evenodd" clip-rule="evenodd" d="M11.3136 10.5527C11.3141 10.874 11.2192 11.1883 11.041 11.4556C10.8628 11.723 10.6093 11.9315 10.3125 12.0547C10.0157 12.1778 9.68909 12.2102 9.37393 12.1476C9.05876 12.0851 8.76925 11.9304 8.54205 11.7032C8.31485 11.476 8.16017 11.1865 8.09761 10.8713C8.03504 10.5562 8.0674 10.2295 8.19058 9.93275C8.31376 9.63599 8.52224 9.38245 8.7896 9.20424C9.05696 9.02603 9.37119 8.93116 9.6925 8.93164C10.1224 8.93164 10.5348 9.10244 10.8388 9.40645C11.1428 9.71046 11.3136 10.1228 11.3136 10.5527Z" fill="white"/>
<path fill-rule="evenodd" clip-rule="evenodd" d="M13.4766 13.2581H16.4697V14.7913H16.5088C16.9263 14.0442 17.9443 13.2581 19.4653 13.2581C22.6221 13.2581 23.208 15.2234 23.208 17.7795V22.9895H20.0903V18.3728C20.0903 17.2717 20.0684 15.8533 18.4619 15.8533C16.8555 15.8533 16.5894 17.052 16.5894 18.2947V22.9895H13.4766V13.2581Z" fill="white"/>
</svg>
