<svg width="21" height="31" viewBox="0 0 21 31" fill="none" xmlns="http://www.w3.org/2000/svg">
<path fill-rule="evenodd" clip-rule="evenodd" d="M6.71576 24.4968C7.78314 26.2155 8.93746 28.298 10.0773 30.3218C10.4999 31.0688 10.8814 31.1811 11.3886 30.295C12.4898 28.3639 13.5716 26.3644 14.7115 24.4993C18.172 18.8379 23.8349 13.3181 19.3312 5.69875C15.3321 -1.06612 4.45542 -0.343487 1.20256 5.95509C-2.52603 13.174 3.29627 18.9941 6.71576 24.4968Z" fill="#61AE4B"/>
<path fill-rule="evenodd" clip-rule="evenodd" d="M10.4953 7.16833C12.7436 7.16833 14.5668 9.01152 14.5668 11.2844C14.5668 13.5572 12.7436 15.4004 10.4953 15.4004C8.24707 15.4004 6.42383 13.5572 6.42383 11.2844C6.42383 9.01152 8.24707 7.16833 10.4953 7.16833Z" fill="white"/>
</svg>
