<svg width="36" height="30" viewBox="0 0 36 30" fill="none" xmlns="http://www.w3.org/2000/svg">
<path d="M16.1009 15.1757C15.9601 15.2583 15.799 15.2763 15.6524 15.2385C15.5058 15.2004 15.3738 15.1062 15.2909 14.9657C15.2083 14.825 15.1902 14.6633 15.2283 14.517C15.2662 14.3707 15.3601 14.2383 15.5006 14.1557L25.992 7.88642L26.9212 4.98938C26.9442 4.91754 26.9794 4.85298 27.0239 4.79772C27.0704 4.74013 27.1268 4.69243 27.1894 4.65608L32.5391 1.56621C32.681 1.48419 32.8433 1.46732 32.9896 1.50659C33.1364 1.54585 33.2682 1.64124 33.3502 1.78317C33.3915 1.85472 33.4162 1.93063 33.4255 2.00712C33.4351 2.08565 33.429 2.16475 33.4081 2.23979L32.9326 4.65346L35.3459 5.52249C35.4998 5.57774 35.6173 5.69059 35.6816 5.82758C35.7461 5.96456 35.7584 6.12656 35.7031 6.28041C35.6787 6.34818 35.6435 6.40838 35.6001 6.46015C35.5713 6.49447 35.5388 6.52559 35.5033 6.55205L35.5065 6.557L35.4419 6.59423L30.0917 9.68322C30.0149 9.72743 29.932 9.75273 29.8488 9.76058C29.7624 9.76844 29.676 9.75739 29.5961 9.72888L26.5876 8.90872L16.1014 15.1754L16.1009 15.1757ZM18.8813 0.514245C20.236 0.877503 21.4977 1.41497 22.6482 2.09641C23.8372 2.80053 24.908 3.65821 25.8408 4.63601C25.8832 4.68022 25.8812 4.7506 25.8367 4.79277C25.8338 4.79568 25.8306 4.79859 25.8274 4.80091L24.9921 5.43262C24.9456 5.46781 24.8795 5.46054 24.8417 5.41691C23.9945 4.54498 23.026 3.78007 21.9537 3.15128C20.9145 2.54168 19.7762 2.06005 18.5547 1.73257C16.7576 1.25123 14.9483 1.14944 13.212 1.37804C11.4082 1.61565 9.68322 2.20983 8.13218 3.10533C6.58085 4.00111 5.20373 5.19791 4.09621 6.64105C3.03 8.03039 2.21361 9.64803 1.73228 11.4451C1.25094 13.2422 1.14915 15.0515 1.37774 16.7875C1.61536 18.5907 2.20954 20.3163 3.10533 21.8673L3.10823 21.8731C4.00344 23.4219 5.19907 24.7972 6.64076 25.9036C8.0298 26.9698 9.64745 27.7865 11.4442 28.2678C13.241 28.7491 15.0504 28.8509 16.7864 28.6223C18.5896 28.3847 20.3148 27.7905 21.8662 26.8948C23.4175 25.9993 24.7949 24.8022 25.9024 23.3593C26.9686 21.97 27.7853 20.3521 28.2663 18.5555C28.5871 17.3587 28.7395 16.157 28.7378 14.9756C28.7363 13.7567 28.5709 12.5573 28.257 11.4059C28.2419 11.3506 28.2716 11.2939 28.3236 11.2732L29.2805 10.8492C29.3366 10.8245 29.4024 10.8501 29.4268 10.9059C29.4297 10.9123 29.432 10.9187 29.4332 10.9251C29.795 12.2016 29.9896 13.5351 29.9986 14.8939C30.0073 16.2105 29.8415 17.5495 29.4847 18.8813C28.9588 20.843 28.0674 22.6093 26.9032 24.1263C25.6939 25.7023 24.1902 27.0091 22.4973 27.9869L22.4912 27.9903C20.7994 28.9658 18.9179 29.6135 16.951 29.8724C15.0547 30.1222 13.0793 30.0114 11.1182 29.4858C9.1568 28.9603 7.39083 28.0689 5.87353 26.9046C4.29805 25.6953 2.99103 24.1917 2.01323 22.4984C1.03572 20.8046 0.386858 18.9211 0.12743 16.9513C-0.12211 15.055 -0.0113001 13.0796 0.514245 11.1185C1.03979 9.1568 1.9315 7.39054 3.09544 5.87353C4.30474 4.29747 5.80838 2.99044 7.50135 2.01294C9.1949 1.03543 11.0784 0.386858 13.0479 0.12743C14.9442 -0.12211 16.9199 -0.0113001 18.8813 0.514245ZM16.237 10.5793C16.4281 10.6328 16.6136 10.6977 16.7931 10.7736C16.9775 10.8515 17.1549 10.9405 17.3241 11.0397C17.3768 11.0705 17.3945 11.1383 17.3637 11.1912C17.3561 11.2043 17.3462 11.2151 17.3349 11.2235L16.4138 11.9204C16.3795 11.9462 16.335 11.9491 16.2986 11.9317C16.2338 11.9041 16.168 11.8788 16.1026 11.8558C16.0369 11.8325 15.9685 11.8113 15.8979 11.7912L15.8656 11.7839L15.8615 11.7828C15.4255 11.6662 14.9867 11.6414 14.5661 11.6967C14.129 11.7543 13.7108 11.8985 13.3347 12.1155C12.9586 12.3328 12.6245 12.623 12.356 12.9729C12.0975 13.3097 11.8994 13.702 11.7825 14.1377C11.6659 14.5737 11.6411 15.0125 11.6964 15.4334C11.754 15.8705 11.898 16.2887 12.1152 16.6651C12.3325 17.0411 12.6227 17.375 12.9723 17.6435C13.3094 17.9023 13.7017 18.1001 14.1371 18.217C14.1426 18.2185 14.1485 18.2205 14.1534 18.2228C14.5836 18.3357 15.0166 18.3586 15.4319 18.3037C15.8691 18.2458 16.2876 18.1015 16.6639 17.8843C17.0409 17.6667 17.375 17.3762 17.6435 17.0272L17.6432 17.0269C17.902 16.6904 18.0998 16.2986 18.217 15.8638L18.2362 15.7873C18.2452 15.7522 18.2702 15.7248 18.3019 15.712L19.4237 15.215C19.4798 15.1902 19.5453 15.2158 19.5703 15.2717C19.5778 15.2894 19.5807 15.308 19.579 15.3261C19.5688 15.4692 19.5511 15.6134 19.5269 15.758C19.5025 15.9014 19.4717 16.0444 19.4336 16.1867L19.4333 16.1872L19.4327 16.1902L19.4313 16.1951C19.2701 16.7934 18.9979 17.3323 18.6425 17.7953C18.2726 18.2778 17.8124 18.6777 17.2948 18.977L17.2886 18.9805C16.7721 19.2774 16.198 19.4746 15.5977 19.5537C15.0221 19.6293 14.4227 19.5965 13.828 19.4394C13.8221 19.4388 13.8163 19.4377 13.8108 19.4362C13.2105 19.2754 12.6693 19.0023 12.2048 18.6457C11.7223 18.2755 11.3218 17.8151 11.0225 17.2959C10.7233 16.7774 10.5243 16.2003 10.4452 15.5977C10.3687 15.0166 10.4025 14.4117 10.5633 13.8114C10.7241 13.2111 10.9972 12.6701 11.3538 12.2057C11.724 11.7229 12.1847 11.3227 12.7033 11.0234L12.7094 11.0199C13.2262 10.7227 13.8009 10.5252 14.4018 10.4461C14.9826 10.3696 15.5875 10.4033 16.1875 10.5642L16.1925 10.5656C16.2 10.5677 16.207 10.5697 16.2128 10.5717C16.2216 10.5738 16.2297 10.5764 16.237 10.5793ZM17.5507 5.47857C18.3394 5.69001 19.0805 5.99132 19.7651 6.36883C20.471 6.75797 21.1167 7.22796 21.6943 7.76311C21.7391 7.80499 21.7417 7.87508 21.7001 7.91987C21.6954 7.92452 21.6911 7.92888 21.6858 7.93266L20.8418 8.57106C20.7967 8.60508 20.7342 8.59956 20.6958 8.56029C20.2069 8.12695 19.6642 7.74624 19.0747 7.42922C18.5003 7.12064 17.8817 6.87285 17.2247 6.69689C16.1 6.39558 14.9675 6.33189 13.8809 6.47498C12.7527 6.6236 11.6731 6.99529 10.7023 7.55574L10.6965 7.55865C9.7283 8.11851 8.86858 8.86655 8.17639 9.76815C7.5092 10.6375 6.9982 11.6502 6.69718 12.7745C6.39587 13.8992 6.33218 15.0315 6.47498 16.1177C6.6236 17.2465 6.99558 18.3264 7.55574 19.2969C8.11618 20.2674 8.86509 21.1295 9.76814 21.8222C10.6378 22.4897 11.6502 23.0007 12.7745 23.302C13.8989 23.6036 15.0315 23.6673 16.1174 23.5242C17.2462 23.3753 18.3261 23.0036 19.2969 22.4432C20.2677 21.8824 21.1295 21.1335 21.8225 20.2308C22.4894 19.3615 23.0007 18.349 23.3017 17.2247C23.4672 16.6072 23.5612 15.9883 23.5882 15.3767C23.6164 14.747 23.574 14.1237 23.4672 13.5162C23.4582 13.4635 23.4876 13.4132 23.535 13.394L24.5084 12.9627C24.5643 12.938 24.63 12.9636 24.6547 13.0194C24.6594 13.0296 24.6617 13.0398 24.6632 13.05C24.8115 13.7823 24.8775 14.537 24.8534 15.3014C24.8301 16.0468 24.7213 16.8009 24.5203 17.551C24.1748 18.8403 23.5888 20.001 22.8236 20.9983C22.029 22.0337 21.0405 22.8928 19.9271 23.5356L19.9274 23.5359C18.8144 24.1783 17.576 24.605 16.2815 24.7754C15.0349 24.9394 13.7366 24.8667 12.4479 24.5215C11.1586 24.176 9.99791 23.5897 9.00033 22.8245C7.96466 22.0296 7.10552 21.0413 6.46306 19.9286L6.45957 19.9222C5.81885 18.8109 5.39364 17.5748 5.2235 16.2826C5.05947 15.0361 5.13218 13.7378 5.4777 12.4488C5.82321 11.1598 6.40896 9.99878 7.17445 9.0015C7.96931 7.96553 8.95758 7.10639 10.0706 6.46393L10.0767 6.46044C11.1883 5.81972 12.4241 5.39452 13.716 5.22467C14.9634 5.06034 16.262 5.13334 17.5507 5.47857ZM31.6721 4.92394L32.0028 3.24696L27.9799 5.5696L27.2455 7.85995L29.7109 8.53208L33.7423 6.2045L32.0531 5.59578C31.9164 5.54692 31.8061 5.45036 31.7381 5.32995C31.6703 5.211 31.6436 5.0682 31.6721 4.92394Z" fill="#61AE4B"/>
</svg>
