<svg width="20" height="21" viewBox="0 0 20 21" fill="none" xmlns="http://www.w3.org/2000/svg">
<path fill-rule="evenodd" clip-rule="evenodd" d="M0.899331 4.29279C2.43251 5.34686 3.95348 6.40695 5.23734 7.77189C4.50141 11.0251 7.43862 13.6243 10.1174 15.1556C11.1661 15.755 11.6296 16.1753 12.797 15.9733L17.3944 20.4812C8.74248 23.3892 -0.967248 11.1891 0.899331 4.29279ZM13.9821 14.8142L14.9906 13.7892C15.2814 13.4931 15.7615 13.4893 16.0574 13.7805L19.7756 17.4442C20.0713 17.7354 20.075 18.2159 19.7842 18.5118L18.7754 19.537C18.4844 19.8329 18.0043 19.8367 17.7085 19.5455L13.9903 15.8818C13.6944 15.5908 13.6909 15.1103 13.9821 14.8142ZM1.80554 2.13665L2.53741 1.2473C2.85113 0.866102 3.41971 0.811087 3.8006 1.12506L7.60711 4.26333C7.98801 4.57763 8.04249 5.14633 7.72909 5.52802L6.9969 6.41688C6.68301 6.79856 6.1146 6.85309 5.73354 6.53911L1.92768 3.40084C1.54679 3.08687 1.49149 2.51784 1.80554 2.13665Z" fill="#61AE4B"/>
</svg>
