<svg width="31" height="31" viewBox="0 0 31 31" fill="none" xmlns="http://www.w3.org/2000/svg">
<path fill-rule="evenodd" clip-rule="evenodd" d="M7.30648 0.960693H23.8333C25.6369 0.965871 27.3652 1.68464 28.6405 2.95998C29.9159 4.23532 30.6346 5.96357 30.6398 7.76717V24.1567C30.634 25.9598 29.9149 27.6875 28.6397 28.9623C27.3644 30.2371 25.6365 30.9555 23.8333 30.9607H7.30648C5.5033 30.9555 3.77542 30.2371 2.50015 28.9623C1.22488 27.6875 0.505824 25.9598 0.5 24.1567V7.76717C0.505177 5.96357 1.22395 4.23532 2.49929 2.95998C3.77463 1.68464 5.50288 0.965871 7.30648 0.960693V0.960693Z" fill="#1CA1F1"/>
<path fill-rule="evenodd" clip-rule="evenodd" d="M25.6533 9.70774C24.8992 10.0431 24.0987 10.2623 23.279 10.3577C24.141 9.8408 24.7873 9.02985 25.0989 8.07419C24.2864 8.55551 23.3982 8.89554 22.472 9.07983C21.9046 8.4754 21.1688 8.05533 20.3599 7.87406C19.5509 7.69279 18.7062 7.75868 17.9352 8.06318C17.1641 8.36769 16.5023 8.89677 16.0355 9.58186C15.5687 10.2669 15.3185 11.0764 15.3172 11.9054C15.3174 12.2223 15.3528 12.5382 15.4227 12.8473C13.7782 12.7646 12.1694 12.3369 10.701 11.5919C9.23254 10.8469 7.93726 9.8013 6.89928 8.52305C6.53123 9.15442 6.3374 9.87219 6.33759 10.603C6.33809 11.2825 6.50624 11.9515 6.82713 12.5504C7.14802 13.1494 7.61174 13.66 8.17718 14.0369C7.52048 14.0145 6.87839 13.8371 6.30325 13.5194V13.5733C6.30029 14.5305 6.62947 15.4591 7.23465 16.2007C7.83983 16.9423 8.68353 17.451 9.62187 17.64C9.26604 17.7366 8.89908 17.7861 8.53038 17.7872C8.26861 17.7856 8.00754 17.7601 7.75039 17.7112C8.01523 18.5325 8.52979 19.2506 9.2223 19.7655C9.91482 20.2804 10.7508 20.5663 11.6135 20.5834C9.87711 21.9443 7.6722 22.5616 5.48157 22.3003C7.37316 23.517 9.5754 24.1625 11.8245 24.1595C19.4281 24.1595 23.5978 17.8559 23.5978 12.3862C23.5978 12.2047 23.5978 12.0281 23.5856 11.849C24.3961 11.2668 25.0949 10.5431 25.6484 9.71265L25.6533 9.70774Z" fill="white"/>
</svg>
